<svg id="Layer_1" height="512" viewBox="0 0 512 512" width="512" xmlns="http://www.w3.org/2000/svg" data-name="Layer 1"><path d="m395.13 430.23c-4.69 9.71-8.21 7.67-13.18 6.78a13.88 13.88 0 0 0 -6.07.09 14.34 14.34 0 0 1 -1.92.4c-7 1.08-8.71-3.71-11.54-18.19-2.21-11.29 8.63-18.82 14.89-22.17 1.05-.57 2-1 2.69-1.34 1-.43 1.53-.64 1.53-.64l7.32 2.16.7.2a25 25 0 0 1 2.45 2.88c3.74 5 9.73 16.1 3.13 29.83z" fill="#adc55e"/><path d="m392 400.4c-.12.75-.19 1.15-.19 1.15l-2.78-.72-7-1.8-4.74-.41c0-.5 0-1 0-1.48-.65-54.12-29.44-77.92-49.72-88a81.05 81.05 0 0 0 -18.23-6.65c-.88-.19-1.37-.27-1.37-.27l4.67-4.6 7-6.9 9.44-9.29 4.15-4.09.49-.48 1.21.46c2.42.93 4.73 1.94 6.94 3 62.24 29.68 51.8 109.59 50.13 120.08z" fill="#adc55e"/><path d="m395.13 430.23c-4.69 9.71-8.21 7.67-13.18 6.78 12.89-4.79 8.16-31 7.09-36.18l-.2-.89c0-.88 0-1.76 0-2.62-.06-80.21-39-107.18-59.76-115.87a57.66 57.66 0 0 0 -12.78-3.91l16.93-.18h1.7c2.42.93 4.73 1.94 6.94 3 62.24 29.64 51.8 109.55 50.13 120.04 3.74 5 9.73 16.1 3.13 29.83z" fill="#fff" opacity=".32"/><path d="m106.17 430.23c4.68 9.71 8.21 7.67 13.18 6.78a13.88 13.88 0 0 1 6.07.09 14.55 14.55 0 0 0 1.91.4c7 1.08 8.72-3.71 11.55-18.19 2.21-11.29-8.63-18.82-14.89-22.17-1.06-.57-2-1-2.7-1.34-1-.43-1.52-.64-1.52-.64l-7.32 2.16-.7.2a25 25 0 0 0 -2.46 2.88c-3.73 5-9.72 16.1-3.12 29.83z" fill="#9cb748"/><path d="m109.29 400.4c.12.75.19 1.15.19 1.15l2.78-.72 7-1.8 4.74-.41c0-.5 0-1 0-1.48.64-54.12 29.43-77.92 49.72-88a81.05 81.05 0 0 1 18.23-6.65c.88-.19 1.37-.27 1.37-.27l-4.67-4.6-7-6.9-9.44-9.29-4.15-4.09-.49-.48-1.22.46c-2.42.93-4.73 1.94-6.93 3-62.23 29.68-51.8 109.59-50.13 120.08z" fill="#9cb748"/><path d="m106.17 430.23c4.68 9.71 8.21 7.67 13.18 6.78-12.89-4.79-8.16-31-7.09-36.18.12-.58.19-.89.19-.89 0-.88 0-1.76 0-2.62.06-80.21 39-107.18 59.76-115.87a57.66 57.66 0 0 1 12.79-3.91l-16.93-.18h-1.71c-2.42.93-4.73 1.94-6.93 3-62.24 29.64-51.81 109.55-50.14 120.04-3.73 5-9.72 16.1-3.12 29.83z" fill="#fff" opacity=".32"/><path d="m353 366.66q0 4-.13 7.88a225.83 225.83 0 0 1 -10.21 61.17 335.34 335.34 0 0 1 -43.67 7c-13.13 1.28-27 2-41.27 2-9.9 0-19.56-.33-28.93-.95q-5.93-.4-11.67-.95a334.67 334.67 0 0 1 -45.73-7.43 225.57 225.57 0 0 1 -10.09-60.48c-.1-2.72-.14-5.48-.14-8.24a241.48 241.48 0 0 1 2.18-32.46 215.29 215.29 0 0 1 6.2-30.07c.41-1.53.86-3.05 1.33-4.56.62-2 1.28-4 2-6 12.68-37.05 34.73-64.83 61.06-75.21a62.56 62.56 0 0 1 23.19-4.51c36.34 0 68 32.18 84.24 79.64q1.63 4.89 3.1 10c.45 1.54.88 3.12 1.28 4.69a215.94 215.94 0 0 1 5.12 26 237.17 237.17 0 0 1 2.14 32.48z" fill="#adc55e"/><path d="m216.69 404.25a235.26 235.26 0 0 0 12.14 39.51q-5.93-.4-11.67-.95a334.67 334.67 0 0 1 -45.73-7.43 225.57 225.57 0 0 1 -10.09-60.48c-.1-2.72-.14-5.48-.14-8.24a241.48 241.48 0 0 1 2.18-32.46 215.29 215.29 0 0 1 6.2-30.07c.41-1.53.86-3.05 1.33-4.56.62-2 1.28-4 2-6 12.68-37.05 34.73-64.83 61.06-75.21-4.36 7.85-8.56 19.3-12.16 33.15-7.94 30.56-12.93 72.8-10.23 113.88a280.68 280.68 0 0 0 5.11 38.86z" fill="#9cb748"/><path d="m321.92 350.49c0 5.86-.23 11.62-.66 17.25-2.29 30-10.45 56.43-22.23 75-13.13 1.28-27 2-41.27 2-9.9 0-19.56-.33-28.93-.95q-5.93-.4-11.67-.95c-11.81-18.6-20-45.09-22.27-75.16q-.64-8.41-.65-17.16c0-41 10.9-77.25 27.53-99 10.31-13.45 22.82-21.33 36.31-21.33 35.26.02 63.84 53.87 63.84 120.3z" fill="#feeac0"/><ellipse cx="256.78" cy="285.78" opacity=".11" rx="91.16" ry="33.48"/><path d="m409.05 207.93c0 55.27-68.53 100.07-153.05 100.07a229.18 229.18 0 0 1 -43.75-4.15c-6.8-1.33-13.41-3-19.78-4.86-52.83-15.77-89.55-50.62-89.55-91.06 0-55.27 68.54-100.06 153.08-100.06a234.24 234.24 0 0 1 24.95 1.32c72.65 7.81 128.1 49.02 128.1 98.74z" fill="#adc55e"/><path d="m251.33 189.29c-33.83 31.86-44.82 73.17-39.09 114.56-63.23-12.32-109.33-50.6-109.33-95.92 0-55.27 68.54-100.06 153.08-100.06a234.24 234.24 0 0 1 24.95 1.32c4.78 21.13 2.06 50.25-29.61 80.1z" fill="#8baa3d" opacity=".82"/><path d="m357.23 24.46a3.93 3.93 0 0 1 -3.06-1.17c-.43-.44-10.32-10.21-24.12-4.31a3.91 3.91 0 1 1 -3.05-7.19c18.85-8.07 32.25 5.45 32.82 6a3.94 3.94 0 0 1 -.1 5.55 3.9 3.9 0 0 1 -2.46 1.09" fill="#18190e" opacity=".82"/><path d="m131.32 40.3a4 4 0 0 0 2.74-1.8c.33-.52 7.92-12.16 22.66-9.32a3.91 3.91 0 0 0 1.49-7.68c-20.14-3.89-30.37 12.17-30.8 12.85a3.93 3.93 0 0 0 3.91 5.95" fill="#18190e" opacity=".82"/><circle cx="176.05" cy="145.34" opacity=".11" r="54.77"/><circle cx="168.66" cy="120.97" fill="#8baa3d" r="62.41"/><circle cx="168.66" cy="120.97" fill="#fff" r="44.13"/><path d="m124.54 121a44.12 44.12 0 0 0 88.23 0 40.34 40.34 0 0 0 -.21-4.3 44.12 44.12 0 0 1 -87.82 0c-.14 1.38-.2 2.81-.2 4.3z" fill="#f2f2f2"/><path d="m200.52 147.22a10.75 10.75 0 1 0 -8.82 8.78 10.76 10.76 0 0 0 8.82-8.78z" fill="#18190e" opacity=".82"/><circle cx="327.2" cy="145.34" opacity=".11" r="54.77"/><circle cx="334.59" cy="120.97" fill="#adc55e" r="62.41"/><circle cx="334.59" cy="120.97" fill="#fff" r="44.13"/><path d="m378.71 121a44.12 44.12 0 0 1 -88.23 0 40.34 40.34 0 0 1 .21-4.3 44.12 44.12 0 0 0 87.82 0 40.37 40.37 0 0 1 .2 4.3z" fill="#f2f2f2"/><path d="m308.15 150.88a10.74 10.74 0 1 1 8.81 8.73 10.76 10.76 0 0 1 -8.81-8.73z" fill="#18190e" opacity=".82"/><g opacity=".24"><path d="m256 292.39a229.19 229.19 0 0 1 -43.75-4.14c-6.8-1.33-13.41-3-19.78-4.86-49.41-14.75-84.72-46.19-89.09-83.28a67.69 67.69 0 0 0 -.46 7.82c0 40.44 36.72 75.29 89.55 91.06 6.37 1.9 13 3.53 19.78 4.86a229.18 229.18 0 0 0 43.75 4.15c84.53 0 153.06-44.8 153.06-100.07a66.7 66.7 0 0 0 -.46-7.77c-6.12 51.61-72.11 92.23-152.6 92.23z" fill="#798e36"/></g><path d="m256 440.07s-66.21-56.75-157.43-56.75l-74.79 45.08 232.22 44.6z" fill="#eef6fa"/><path d="m256 440.07s66.21-56.75 157.44-56.75l74.76 45.08-232.2 44.6z" fill="#eef6fa"/><path d="m261.39 465s70-47.2 225.94-36.6v57.81h-223.82z" fill="#d1cecd"/><path d="m249.72 465s-70-47.2-225.94-36.6v57.81h223.82z" fill="#d1cecd"/><rect fill="#822244" height="16.85" rx="8.43" width="500" x="6" y="480.04"/><path d="m256 447.6c11.76 0 21.3 16.85 21.3 28.61v5.27a21.3 21.3 0 0 1 -21.3 21.29 21.29 21.29 0 0 1 -21.29-21.29v-5.27c-.02-11.76 9.51-28.61 21.29-28.61z" fill="#822244"/><path d="m209.74 464.15s-87-28.4-146-16.55c.02 0 52.48-3.51 146 16.55z" fill="#9e9e9e"/><path d="m322.44 464.15s87-28.4 146-16.55c-.01 0-52.44-3.51-146 16.55z" fill="#9e9e9e"/><path d="m217.89 266s57.68-44.89 87-22.09c0-.04-25.16-40.75-87 22.09z" fill="#822244"/><circle cx="336.38" cy="120" fill="#c0e5eb" opacity=".21" r="73.84"/><path d="m336.38 201.84a79.07 79.07 0 1 1 79.06-79.07 79.16 79.16 0 0 1 -79.06 79.07zm0-147.68a68.62 68.62 0 1 0 68.62 68.61 68.69 68.69 0 0 0 -68.62-68.61z" fill="#822244"/><circle cx="168.49" cy="122.77" fill="#c0e5eb" opacity=".21" r="73.84"/><g fill="#822244"><path d="m168.49 201.84a79.07 79.07 0 1 1 79.07-79.07 79.16 79.16 0 0 1 -79.07 79.07zm0-147.68a68.62 68.62 0 1 0 68.62 68.61 68.7 68.7 0 0 0 -68.62-68.61z"/><path d="m240.36 118.82h21.26v7.9h-21.26z"/></g></svg>